<?xml version="1.0" standalone="no"?>
<!DOCTYPE svg PUBLIC "-//W3C//DTD SVG 20010904//EN"
 "http://www.w3.org/TR/2001/REC-SVG-20010904/DTD/svg10.dtd">
<svg version="1.0" xmlns="http://www.w3.org/2000/svg"
 width="50.000000pt" height="50.000000pt" viewBox="0 0 50.000000 50.000000"
 preserveAspectRatio="xMidYMid meet">

<g transform="translate(0.000000,50.000000) scale(0.100000,-0.100000)"
fill="#000000" stroke="none">
<path d="M25 458 c-3 -8 -4 -106 -3 -218 l3 -205 40 0 40 0 5 140 5 140 23
-50 c13 -27 35 -79 49 -115 32 -80 40 -90 67 -90 18 0 28 15 56 83 18 45 43
102 54 127 l21 45 5 -140 5 -140 40 0 40 0 0 215 0 215 -49 0 -50 0 -60 -147
c-34 -82 -63 -148 -66 -148 -3 0 -32 66 -65 148 l-61 147 -47 3 c-32 2 -49 -1
-52 -10z"/>
</g>
</svg>
